<?xml version="1.0" encoding="UTF-8"?>
<svg xmlns="http://www.w3.org/2000/svg" xmlns:xlink="http://www.w3.org/1999/xlink" width="75pt" height="74.999997pt" viewBox="0 0 75 74.999997" version="1.2">
<defs>
<clipPath id="clip1">
  <path d="M 0 1.820312 L 75 1.820312 L 75 73.070312 L 0 73.070312 Z M 0 1.820312 "/>
</clipPath>
</defs>
<g id="surface1">
<g clip-path="url(#clip1)" clip-rule="nonzero">
<path style=" stroke:none;fill-rule:nonzero;fill:#ff9800;fill-opacity:1;" d="M 37.5 19.257812 L 41.203125 30.738281 L 42.40625 34.453125 L 46.320312 34.445312 L 58.40625 34.40625 L 48.613281 41.484375 L 45.441406 43.769531 L 46.667969 47.480469 L 50.425781 58.957031 L 40.664062 51.855469 L 37.5 49.535156 L 34.34375 51.851562 L 24.585938 58.953125 L 28.34375 47.476562 L 29.574219 43.765625 L 26.390625 41.480469 L 16.621094 34.40625 L 28.707031 34.449219 L 32.609375 34.453125 L 33.828125 30.746094 L 37.5 19.257812 M 37.5 1.832031 L 28.695312 29.109375 L 0 29.039062 L 23.25 45.832031 L 14.324219 73.0625 L 37.5 56.164062 L 60.675781 73.054688 L 51.75 45.832031 L 75 29.039062 L 46.320312 29.109375 Z M 37.5 1.832031 "/>
</g>
</g>
</svg>
